<?xml version="1.0" standalone="no"?>
<!DOCTYPE svg PUBLIC "-//W3C//DTD SVG 20010904//EN"
 "http://www.w3.org/TR/2001/REC-SVG-20010904/DTD/svg10.dtd">
<svg version="1.0" xmlns="http://www.w3.org/2000/svg"
 width="1136.000000pt" height="1280.000000pt" viewBox="0 0 1136.000000 1280.000000"
 preserveAspectRatio="xMidYMid meet">
<metadata>
Created by potrace 1.15, written by Peter Selinger 2001-2017
</metadata>
<g transform="translate(0.000000,1280.000000) scale(0.100000,-0.100000)"
fill="#000000" stroke="none">
<path d="M6820 12793 c-370 -37 -541 -173 -809 -645 -89 -158 -196 -381 -246
-513 -28 -74 -39 -125 -46 -200 -19 -199 -83 -458 -200 -810 -135 -405 -290
-753 -472 -1062 -304 -515 -367 -651 -657 -1403 -229 -595 -261 -671 -313
-739 -91 -121 -669 -683 -894 -871 -84 -70 -102 -80 -200 -113 -277 -94 -523
-147 -678 -147 -183 0 -423 58 -600 146 -222 109 -535 384 -618 542 -57 108
-71 175 -71 337 0 159 16 272 79 590 51 254 65 375 65 560 0 214 -25 413 -70
557 -27 89 -120 269 -265 513 -207 350 -328 629 -366 845 -19 106 -16 306 5
410 44 208 201 534 322 668 36 41 48 62 51 96 6 52 -6 62 -45 42 -46 -24 -173
-166 -244 -273 -231 -350 -332 -693 -299 -1019 18 -177 52 -318 156 -634 160
-484 179 -570 179 -795 -1 -223 -28 -335 -176 -705 -373 -934 -439 -1182 -394
-1461 87 -528 324 -1023 680 -1421 181 -203 351 -354 636 -568 243 -183 372
-285 595 -470 304 -254 448 -351 706 -478 146 -72 219 -129 219 -172 0 -38
-54 -104 -179 -220 -107 -100 -181 -186 -224 -260 -14 -25 -55 -117 -90 -205
-66 -163 -118 -279 -246 -553 -158 -338 -164 -369 -181 -1042 -13 -490 -23
-550 -115 -665 -89 -112 -109 -182 -109 -375 0 -80 3 -158 7 -174 8 -28 8 -28
29 -10 18 17 35 19 146 16 139 -3 164 3 227 53 118 94 191 88 317 -24 80 -72
106 -81 242 -81 l115 0 21 -30 c42 -59 85 -27 96 72 11 98 43 105 213 46 182
-62 308 -33 350 82 9 24 21 45 27 47 5 2 38 -21 71 -52 80 -72 93 -72 93 3 0
42 -7 72 -26 110 -52 104 -229 232 -370 266 -33 8 -95 18 -139 21 -44 4 -97
14 -117 22 -59 23 -150 129 -202 234 -39 77 -46 100 -46 150 0 32 4 59 8 59 5
0 23 -18 41 -40 44 -55 55 -52 47 14 -8 70 -63 228 -127 363 -70 149 -89 207
-89 275 0 69 15 102 73 166 126 136 520 428 765 566 46 26 130 62 188 81 132
43 189 74 269 147 83 77 139 152 243 328 109 186 153 245 202 270 38 19 67 26
274 65 96 18 244 61 316 93 25 11 198 94 386 185 663 322 790 367 1021 367
169 0 529 53 963 141 246 50 536 122 595 148 36 16 46 17 55 6 35 -42 72 -391
74 -695 1 -258 1 -258 -85 -497 -69 -191 -80 -236 -81 -323 -1 -85 18 -127 90
-203 87 -91 87 -90 87 -262 0 -147 1 -151 29 -202 16 -28 35 -54 44 -58 9 -3
33 12 62 39 93 87 349 186 482 186 49 0 175 -73 303 -176 187 -149 232 -167
470 -184 196 -14 409 -12 490 5 43 9 129 44 225 90 189 90 268 111 485 124
173 11 256 28 322 67 43 25 73 67 73 102 0 24 46 67 92 86 44 19 112 21 157 5
66 -23 68 42 3 86 -62 43 -155 66 -323 80 -86 8 -173 20 -192 29 -44 18 -71
57 -63 90 14 56 132 137 240 166 33 8 61 20 63 26 2 6 -5 22 -16 35 -17 22
-28 24 -113 27 -170 7 -389 -49 -625 -158 -214 -98 -247 -101 -269 -24 -21 74
5 97 118 109 85 9 98 22 62 64 -38 45 -75 61 -142 61 -117 0 -184 -30 -425
-189 -190 -125 -176 -122 -290 -63 -136 70 -365 251 -416 329 -26 39 -28 48
-20 81 33 123 73 250 166 517 58 165 129 385 159 488 126 440 189 833 154 957
-17 59 -106 167 -289 351 -410 410 -643 577 -1188 852 l-263 132 0 295 c0 162
-5 437 -10 610 -14 429 -27 562 -86 832 -30 140 -41 218 -30 218 2 0 44 -12
92 -26 126 -37 175 -31 306 33 141 69 166 76 262 71 130 -7 214 -53 426 -233
130 -111 233 -185 256 -185 23 0 26 64 9 180 -23 144 -18 156 62 165 86 9 103
14 110 30 13 36 -57 75 -232 131 -66 20 -192 64 -280 97 -219 81 -252 83 -522
28 -110 -23 -212 -41 -225 -41 -48 0 -126 50 -206 135 -84 87 -126 154 -137
221 -13 79 -38 152 -90 264 -84 183 -97 242 -125 612 -6 75 -22 203 -36 285
-14 81 -28 191 -31 243 l-6 95 33 -30 c38 -36 134 -159 215 -275 125 -180 263
-358 340 -439 66 -70 94 -91 160 -122 212 -100 370 -128 448 -80 72 44 202
224 214 294 4 29 2 35 -17 40 -21 5 -22 10 -16 61 6 53 5 56 -16 56 -13 0 -40
-5 -61 -11 -22 -6 -41 -8 -44 -6 -2 3 12 26 31 51 40 52 51 97 42 162 -14 102
-98 200 -221 259 -93 44 -111 67 -95 125 l11 41 -70 65 c-107 99 -148 201
-101 252 27 28 83 29 128 2 33 -20 35 -26 32 -72 -1 -22 3 -28 19 -28 33 0 53
-28 45 -64 -13 -58 -12 -61 24 -58 29 3 34 0 44 -28 10 -31 12 -32 67 -28 60
3 61 2 46 -54 -10 -39 18 -47 146 -41 129 7 135 3 113 -81 -8 -32 -14 -62 -12
-67 2 -5 27 9 57 31 87 65 140 66 106 0 -9 -17 -14 -34 -11 -37 3 -3 26 0 52
6 59 15 69 6 53 -48 -7 -23 -10 -44 -7 -47 4 -3 38 8 76 25 82 36 107 38 122
11 14 -27 51 -25 123 4 159 66 306 197 375 334 72 144 66 209 -34 402 -83 160
-195 301 -425 537 -218 223 -336 369 -406 501 -54 100 -110 164 -171 194 -39
19 -64 23 -142 24 -52 0 -105 4 -117 8 -13 4 -73 47 -134 96 -133 105 -206
146 -296 165 -89 19 -163 45 -282 99 -117 53 -192 72 -336 86 -102 9 -355 11
-435 3z"/>
</g>
</svg>
